# xmcd CD database file
#
# Track frame offsets:
#	150
#	13701
#	31939
#	46737
#	61721
#	79798
#	95570
#	108002
#	123430
#	134118
#	156611
#	173413
#	194361
#	211777
#	226312
#
# Disc length: 3263 seconds
#
# Revision: 14
# Processed by: cddbd v1.5.2PL0 Copyright (c) Steve Scherf et al.
# Submitted via: CDex 1.70beta3
#
DISCID=bd0cbd0f
DTITLE=サラ・ブライトマン - アヴェ・マリア～サラ・ブライトマン・クラシックス～
DYEAR=2001
DGENRE=Classical
TTITLE0=アヴェ・マリア
TTITLE1=私を泣かせて下さい
TTITLE2=ウインターライト
TTITLE3=エニィタイム・エニィウェア
TTITLE4=アルハンブラの想い出
TTITLE5=さよなら、ふるさとの家よ
TTITLE6=夜の踊り
TTITLE7=セレナーデ／ここは素晴らしい場所
TTITLE8=私のお父さん
TTITLE9=ラ・ルーナ
TTITLE10=ピエ・イエス
TTITLE11=フィリオ・ペルドゥート
TTITLE12=ネッスン・ドルマ（誰も寝てはならぬ）
TTITLE13=バイレロ
TTITLE14=タイム・トゥ・セイ・グッバイ
EXTD=Alvaro J Pinto YEAR: 2001
EXTT0=
EXTT1=
EXTT2=
EXTT3=
EXTT4=
EXTT5=
EXTT6=
EXTT7=
EXTT8=
EXTT9=
EXTT10=
EXTT11=
EXTT12=
EXTT13=
EXTT14=
PLAYORDER=
